<svg xmlns="http://www.w3.org/2000/svg" width="1200" height="630" viewBox="0 0 1200 630" font-family="-apple-system, BlinkMacSystemFont, 'SF Pro Display', 'Segoe UI', sans-serif">
  <defs>
    <linearGradient id="bg" x1="0" y1="0" x2="0" y2="1">
      <stop offset="0" stop-color="#3F1B3A"/>
      <stop offset="1" stop-color="#1C0C1B"/>
    </linearGradient>
    <radialGradient id="glow" cx="0.28" cy="0.18" r="0.75">
      <stop offset="0" stop-color="#C06BB4" stop-opacity="0.34"/>
      <stop offset="1" stop-color="#C06BB4" stop-opacity="0"/>
    </radialGradient>
    <linearGradient id="badge" x1="0" y1="0" x2="0" y2="1">
      <stop offset="0" stop-color="#B86AAC"/>
      <stop offset=".5" stop-color="#AC56A0"/>
      <stop offset="1" stop-color="#974A8B"/>
    </linearGradient>
  </defs>
  <rect width="1200" height="630" fill="url(#bg)"/>
  <rect width="1200" height="630" fill="url(#glow)"/>

  <!-- Icono real: badge ciruela + campana -->
  <g transform="translate(120 205)">
    <rect width="220" height="220" rx="50" fill="url(#badge)"/>
    <g transform="translate(19 23) scale(7.6)" fill="#fff" stroke="#fff" stroke-width="0.35" stroke-linejoin="round" opacity="0.97">
      <path d="M6 8a6 6 0 0 1 12 0C18 15 18.92 15.61 20 16.33Q21 17 19.8 17H4.2Q3 17 4 16.33C5.08 15.61 6 15 6 8"/>
      <path d="M10.3 19a1.94 1.94 0 0 0 3.4 0"/>
    </g>
  </g>

  <!-- Wordmark + tagline -->
  <text x="410" y="288" fill="#ffffff" font-size="104" font-weight="700" letter-spacing="-3">Lexbell</text>
  <text x="414" y="352" fill="#E0A9D6" font-size="34" font-weight="500" letter-spacing="-0.5">Gestión de expedientes legales para Mac</text>
  <text x="414" y="410" fill="rgba(255,255,255,0.55)" font-size="25" font-family="ui-monospace, 'SF Mono', Menlo, monospace" letter-spacing="0.5">macOS · 100% local · cero conexiones</text>
</svg>
